<svg height='100px' width='100px'  fill="#222525" xmlns="http://www.w3.org/2000/svg" xmlns:xlink="http://www.w3.org/1999/xlink" version="1.1" x="0px" y="0px" viewBox="0 0 100 100" style="enable-background:new 0 0 100 100;" xml:space="preserve"><g><g><path d="M77.1,77.8l-9.7-10.7c-3.3-3.7-7-4-10.9-0.5c-4.7,3.4-7.8,2.7-10.2,0.4c-5-4.8-9.3-11.6-13-20    c-1.2-4.1-0.7-7.6,2.4-10.2c0.8-0.7,1.7-1.1,2.6-1.5c4.1-1.5,5.4-4.6,4.2-9.1l-5.5-15C35,5.4,31.1,4.9,26,7.9    c-5.6,2.8-10.5,7.8-11.2,14c-1.4,14,3.4,28.3,13.6,42.9c8,13,17.1,22.9,27.8,27.5c3.9,1.7,8.3,2.1,12.5,1c3-0.8,5.9-2.3,8.6-4.8    C81,86,80.9,82.5,77.1,77.8z M29,21.4c-4.5,2.3-6.6,6.6-7.4,12.2c0,0.1-0.1,0.1-0.1,0l-0.7-8.1c0-2.8,0.7-5.3,2.1-7.4    c0.7-1.1,1.7-2,2.8-2.7l3.6-2.2c0.6-0.4,1.4-0.1,1.7,0.6l1.9,4.6c0.2,0.6,0,1.3-0.6,1.5L29,21.4z"></path></g><g><path d="M81.9,58.6c-0.2,0-0.4,0-0.6-0.1c-1.5-0.3-2.5-1.8-2.2-3.3c3.5-16.5-7.2-32.8-23.7-36.3    c-1.5-0.3-2.5-1.8-2.2-3.3c0.3-1.5,1.8-2.5,3.3-2.2c19.6,4.1,32.2,23.4,28.1,43C84.4,57.7,83.2,58.6,81.9,58.6z"></path></g><g><path d="M69.9,57.3c-0.2,0-0.4,0-0.6-0.1c-1.5-0.3-2.5-1.8-2.2-3.3c1.1-5.2,0.1-10.5-2.8-15    c-2.9-4.5-7.4-7.5-12.6-8.6c-1.5-0.3-2.5-1.8-2.2-3.3c0.3-1.5,1.8-2.5,3.3-2.2C66.6,27.7,75.5,41.2,72.6,55    C72.3,56.4,71.2,57.3,69.9,57.3z"></path></g></g></svg>