<?xml version="1.0" encoding="utf-8"?>
<!-- Generator: Adobe Illustrator 25.2.3, SVG Export Plug-In . SVG Version: 6.00 Build 0)  -->
<svg version="1.1" id="Layer_1" xmlns="http://www.w3.org/2000/svg" xmlns:xlink="http://www.w3.org/1999/xlink" x="0px" y="0px"
	 viewBox="0 0 110 110" style="enable-background:new 0 0 110 110;" xml:space="preserve">
<g>
	<path d="M61.7,31.3L26,67l-1,1L12.4,80.6C7.9,76.9,5,71.3,5,65c0-9.4,6.4-17.2,15.1-19.4C22.3,33.9,32.6,25,45,25
		C51.4,25,57.2,27.4,61.7,31.3z"/>
</g>
<g>
	<path d="M105,69c0,8.8-7.2,16-16,16H30.7L19.8,95.8l-5.7-5.7l5.8-5.8l5-5l17.7-17.7l1.7-1.7l6-6l16.5-16.5l3.8-3.8l12.5-12.5
		l5.7,5.7l-8.7,8.7c2.5,1.1,4.8,2.7,6.7,4.7c3.3,3.5,5.4,8.1,5.5,13.2C99.6,54.9,105,61.3,105,69z"/>
</g>
</svg>
