<svg xmlns="http://www.w3.org/2000/svg" viewBox="0 0 179.34 179.64"><defs><style>.cls-1{fill:none;}</style></defs><g id="Layer_2" data-name="Layer 2"><g id="Layer_1-2" data-name="Layer 1"><rect class="cls-1" width="179.34" height="179.34"/><path d="M149.58,146.61l-11.51-15.29V64.6a8.41,8.41,0,0,0-8.41-8.41h0a8.38,8.38,0,0,0-5.43,2V11.81A11.72,11.72,0,0,0,112.51.09H57.06A11.72,11.72,0,0,0,45.34,11.81V27.27L43.05,25a8.41,8.41,0,0,0-11.89,0h0a8.41,8.41,0,0,0,0,11.9L42.79,48.53a8.4,8.4,0,0,0-11.63.24h0a8.41,8.41,0,0,0,0,11.9L43,72.51a8.41,8.41,0,0,0-11.84,0h0a8.41,8.41,0,0,0,0,11.9L45.34,98.64v29.87a11.71,11.71,0,0,0,11.72,11.72H81.58L109.26,177a6.67,6.67,0,0,0,9.34,1.31L148.27,156A6.67,6.67,0,0,0,149.58,146.61Zm-38.5-24.31a4.69,4.69,0,0,1-4.69,4.69H63.17a4.69,4.69,0,0,1-4.69-4.69V17.89a4.69,4.69,0,0,1,4.69-4.69h43.22a4.69,4.69,0,0,1,4.69,4.69Z"/></g></g></svg>