<?xml version="1.0" encoding="utf-8"?>
<!-- Generator: Adobe Illustrator 25.2.3, SVG Export Plug-In . SVG Version: 6.00 Build 0)  -->
<svg version="1.1" id="Layer_1" xmlns="http://www.w3.org/2000/svg" xmlns:xlink="http://www.w3.org/1999/xlink" x="0px" y="0px"
	 viewBox="0 0 1024 1024" style="enable-background:new 0 0 1024 1024;" xml:space="preserve">
<g>
	<path d="M827,185.1H196.8c-28.3,0-51.3,23-51.3,51.3v420.8c0,28.3,23,51.3,51.3,51.3H827c28.3,0,51.3-23,51.3-51.3V236.4
		C878.3,208.1,855.3,185.1,827,185.1z M400.2,563.4c-10.2,10.2-26.9,10.2-37.1,0L261.2,461.5c-5.2-5.2-7.8-12.2-7.7-19
		c-0.1-6.9,2.4-13.8,7.7-19l100.8-100.8c10.2-10.2,26.9-10.2,37.1,0l0,0c10.2,10.2,10.2,26.9,0,37.1l-82.7,82.7l83.8,83.8
		C410.4,536.5,410.4,553.2,400.2,563.4z M581.6,296.9l-89.4,314.9c-3.9,13.7-18.1,21.6-31.8,17.7l-1-0.3
		c-13.7-3.9-21.6-18.1-17.7-31.8l89.4-314.9c3.9-13.7,18.1-21.6,31.8-17.7l1,0.3C577.6,269,585.5,283.2,581.6,296.9z M762.8,461.9
		L660.7,564.1c-10.2,10.2-26.9,10.2-37.1,0s-10.2-26.9,0-37.1l84.1-84.1l-83.4-83.4c-10.2-10.2-10.2-26.9,0-37.1h0
		c10.2-10.2,26.9-10.2,37.1,0l101.5,101.5c5.2,5.2,7.8,12.2,7.7,19C770.6,449.8,768.1,456.7,762.8,461.9z"/>
</g>
<rect x="407.8" y="735" width="208.8" height="130.6"/>
</svg>
