<svg xmlns="http://www.w3.org/2000/svg" viewBox="0 0 191.87 223.81"><g id="Layer_2" data-name="Layer 2"><g id="Layer_1-2" data-name="Layer 1"><polygon points="127.91 111.89 63.96 111.89 63.96 207.73 39.97 207.73 39.97 223.81 151.89 223.81 151.89 207.73 127.91 207.73 127.91 111.89"/><path d="M177.69,0H14.17A14.18,14.18,0,0,0,0,14.17V81.72A14.17,14.17,0,0,0,14.17,95.89H177.69a14.17,14.17,0,0,0,14.18-14.17V14.17A14.18,14.18,0,0,0,177.69,0Zm-1.81,66.56a5.34,5.34,0,0,1-5.34,5.34H21.32A5.34,5.34,0,0,1,16,66.56V21.32A5.33,5.33,0,0,1,21.32,16H170.54a5.34,5.34,0,0,1,5.34,5.33Z"/></g></g></svg>