<svg xmlns="http://www.w3.org/2000/svg" viewBox="0 0 33.38 77.04"><g id="Layer_2" data-name="Layer 2"><g id="Layer_1-2" data-name="Layer 1"><path d="M5.14,74.55A2.49,2.49,0,0,0,7.63,77H25.76a2.5,2.5,0,0,0,2.49-2.49V69.31H5.14Z"/><path d="M28.56,5.14h-.15V2.44A2.44,2.44,0,0,0,26,0H7.74A2.44,2.44,0,0,0,5.3,2.44v2.7H4.82A4.81,4.81,0,0,0,0,10v52a4.82,4.82,0,0,0,4.82,4.82H28.56a4.81,4.81,0,0,0,4.82-4.82V10A4.81,4.81,0,0,0,28.56,5.14Zm-.15,53.93a2.56,2.56,0,0,1-2.56,2.56h-18A2.56,2.56,0,0,1,5.3,59.07V25.35a2.24,2.24,0,0,1,2.24-2.24H26.17a2.24,2.24,0,0,1,2.24,2.24Zm0-46.2H5.3V10.3H28.41Z"/></g></g></svg>