<svg xmlns="http://www.w3.org/2000/svg" viewBox="0 0 66.77 64.2"><g id="Layer_2" data-name="Layer 2"><g id="Layer_1-2" data-name="Layer 1"><path d="M62.21,0H4.55A4.55,4.55,0,0,0,0,4.55V59.64A4.56,4.56,0,0,0,4.55,64.2h5.72V18H56.49V64.2h5.72a4.56,4.56,0,0,0,4.56-4.56V4.55A4.56,4.56,0,0,0,62.21,0Z"/><path d="M18,64.2h15.4V51.36H18Zm2.56-10.27h2.57v5.13H20.54Z"/><path d="M36,64.2H48.79V51.36H36Zm2.57-10.27h5.13v2.56H38.52Z"/><path d="M41.09,36H25.68V48.79H41.09Zm-10.28,7.7H28.25V38.52h2.56Z"/></g></g></svg>