<?xml version="1.0" encoding="utf-8"?>
<!-- Generator: Adobe Illustrator 25.2.3, SVG Export Plug-In . SVG Version: 6.00 Build 0)  -->
<svg version="1.1" id="Layer_1" xmlns="http://www.w3.org/2000/svg" xmlns:xlink="http://www.w3.org/1999/xlink" x="0px" y="0px"
	 viewBox="0 0 100 100" style="enable-background:new 0 0 100 100;" xml:space="preserve">
<g>
	<polygon points="27.1,43 32.9,43 30,33.5 	"/>
	<path d="M38,14H18c-4.4,0-8,3.6-8,8v68l24-24h18L38,14z M34.2,47h-8.3L24,53h-4l8-26h4l8,26h-4L34.2,47z"/>
	<path d="M82,14H42l14,52h26c4.4,0,8-3.6,8-8V22C90,17.6,86.4,14,82,14z M68,27h4v4h-4V27z M80,53c-3.7,0-7.3-0.7-10.6-2.1
		C66.4,52.3,63.2,53,60,53v-4c1.7,0,3.4-0.2,5-0.7c-3.1-2.5-5-5.7-5-9.3h4c0,2.9,2.1,5.5,5.3,7.4c4-2.4,6.6-6.7,6.7-11.4H60v-4h20v4
		l0,0c-0.1,5.1-2.4,9.9-6.4,13.1c2.1,0.6,4.2,0.9,6.4,0.9V53z"/>
</g>
</svg>
