<?xml version="1.0" encoding="UTF-8"?>
<svg width="90px" height="90px" viewBox="0 0 90 90" version="1.1" xmlns="http://www.w3.org/2000/svg" xmlns:xlink="http://www.w3.org/1999/xlink">
    <!-- Generator: Sketch 50.2 (55047) - http://www.bohemiancoding.com/sketch -->
    <title>noun_whatsapp_988426_4f77ff</title>
    <desc>Created with Sketch.</desc>
    <defs></defs>
    <g id="Welcome" stroke="none" stroke-width="1" fill="none" fill-rule="evenodd">
        <g id="Artboard-2" transform="translate(-208.000000, -199.000000)" fill="#25D366" stroke="#25D366" stroke-width="2">
            <g id="noun_whatsapp_988426_4f77ff" transform="translate(209.000000, 200.000000)">
                <path d="M28.341252,17.0075 C28.1923615,17.0223688 28.0456099,17.0538995 27.903752,17.1015 C23.449442,18.4695 20.294862,20.8888 18.591252,24.039 C16.887642,27.1892 16.672382,30.8816 17.403752,34.6327 C18.866472,42.13492 24.057122,50.19842 30.622502,56.91392 C37.187882,63.62952 45.104492,69.00472 52.653752,70.57022 C56.428392,71.35292 60.186892,71.14592 63.434998,69.44522 C66.683108,67.74442 69.267298,64.57282 70.872498,60.03892 C71.1773477,59.1637963 70.8411002,58.1938723 70.059998,57.69522 L55.810002,48.75772 L55.778752,48.72672 C55.7085348,48.6804974 55.6354732,48.6387479 55.560002,48.60172 C55.3504043,48.4658803 55.1172169,48.3705024 54.872502,48.32052 C54.8516699,48.3201945 54.8308341,48.3201945 54.810002,48.32052 C54.758351,48.3081158 54.7062263,48.2977743 54.653752,48.28952 C54.6433355,48.2894386 54.6329185,48.2894386 54.622502,48.28952 C54.2889937,48.2701314 53.9559412,48.3345932 53.653752,48.47702 C53.5440963,48.5298795 53.4394955,48.59264 53.341252,48.66452 C53.2764524,48.7026297 53.2138531,48.7443626 53.153752,48.78952 C53.1320384,48.8202591 53.1111968,48.8516049 53.091252,48.88352 C53.0127988,48.9506635 52.9396635,49.0237822 52.872502,49.10222 L49.747502,52.25852 C44.081612,49.40652 39.724882,44.62502 35.810002,38.1648 L38.685002,35.321 C38.7399236,35.2718521 38.7920865,35.2197058 38.841252,35.1648 C38.8847406,35.124996 38.926448,35.0832886 38.966252,35.0398 C38.9663321,35.0294668 38.9663321,35.0191332 38.966252,35.0088 C39.0097406,34.968996 39.051448,34.9272886 39.091252,34.8838 C39.0913321,34.8734668 39.0913321,34.8631332 39.091252,34.8528 C39.1129656,34.8220609 39.1338072,34.7907151 39.153752,34.7588 C39.1750377,34.7385944 39.1958761,34.7179227 39.216252,34.6968 C39.2392696,34.6456002 39.2601214,34.593454 39.278752,34.5405 C39.2788321,34.5301668 39.2788321,34.5198332 39.278752,34.5095 C39.2895266,34.4890157 39.2999449,34.4683459 39.310002,34.4475 C39.3322852,34.4065742 39.3531312,34.3648821 39.372502,34.3225 C39.3849888,34.270869 39.3954138,34.218761 39.403752,34.1663 C39.4038321,34.1559668 39.4038321,34.1456332 39.403752,34.1353 C39.4171345,34.0733306 39.427563,34.01076 39.435002,33.9478 C39.4350821,33.9374668 39.4350821,33.9271332 39.435002,33.9168 C39.4370386,33.8647199 39.4370386,33.8125801 39.435002,33.7605 C39.4350821,33.7501668 39.4350821,33.7398332 39.435002,33.7295 C39.437036,33.6774532 39.437036,33.6253468 39.435002,33.5733 C39.4353224,33.5526346 39.4353224,33.5319654 39.435002,33.5113 C39.4266664,33.4588054 39.4162414,33.4066641 39.403752,33.355 C39.4038321,33.3446668 39.4038321,33.3343332 39.403752,33.324 C39.3726697,33.2058562 39.3308281,33.0908086 39.278752,32.9803 C39.2788321,32.9699668 39.2788321,32.9596332 39.278752,32.9493 C39.2429665,32.8631535 39.2011979,32.7796163 39.153752,32.6993 L39.122502,32.6373 C39.1121994,32.6268523 39.1017821,32.6165184 39.091252,32.6063 L30.185002,17.9813 C29.8339829,17.397328 29.2098162,17.0322305 28.528752,17.0125 C28.4662864,17.0095687 28.4037176,17.0095687 28.341252,17.0125 L28.341252,17.0075 Z M27.622502,21.4137 L34.903752,33.445 L31.872502,36.445 C31.2381343,37.0850655 31.1101756,38.0703272 31.560002,38.8512 C36.185822,46.86182 41.666682,53.09382 49.341252,56.47622 C50.0939248,56.8105716 50.9746007,56.6493409 51.560002,56.07002 L54.778752,52.85122 L66.528748,60.19502 C65.227658,63.12312 63.531498,64.86652 61.591248,65.88252 C59.343822,67.05932 56.598812,67.28212 53.466252,66.63252 C47.201142,65.33332 39.633372,60.40942 33.466252,54.10122 C27.299132,47.79302 22.526652,40.1225 21.310002,33.8825 C20.701682,30.7625 20.970422,28.0753 22.122502,25.945 C23.114482,24.1107 24.799482,22.5403 27.622502,21.4137 Z" id="Shape"></path>
                <path d="M44.000002,0.0003 C19.729182,0.0003 0.000312,19.719 0.000312,44.00002 C0.000312,52.82342 2.614952,61.07042 7.225002,68.14532 L2.304382,84.56592 C2.08918216,85.284594 2.29426713,86.0632609 2.83555827,86.5826906 C3.37684941,87.1021203 4.163305,87.2749482 4.872502,87.03032 L20.945002,81.48342 C27.637472,85.61402 35.551532,87.99972 44.000002,87.99972 C68.280348,87.99972 87.999688,68.28032 87.999688,44.00002 C87.999688,19.7196 68.280348,0.0003 44.000002,0.0003 Z M44.000002,3.9997 C66.119648,3.9997 84.000318,21.8803 84.000318,44.00002 C84.000318,66.11962 66.119648,84.00032 44.000002,84.00032 C35.981562,84.00032 28.523982,81.64842 22.288442,77.60252 C21.7718365,77.2673482 21.1296295,77.1888494 20.547502,77.38972 L7.255622,81.97692 L11.325622,68.39402 C11.4986405,67.8165627 11.4019699,67.1918705 11.062502,66.69372 C6.543862,60.06382 3.999692,52.34162 3.999692,44.00002 C3.999692,21.8809 21.890822,3.9997 44.000002,3.9997 Z" id="Shape"></path>
            </g>
        </g>
    </g>
</svg>